<svg width="100" height="100" viewBox="0 0 100 100" fill="none" xmlns="http://www.w3.org/2000/svg">
<g clip-path="url(#clip0_2_5)">
<path d="M4 30H95V96H4V30Z" fill="black" stroke="black"/>
<rect x="24" y="42" width="10" height="10" fill="#D9D9D9"/>
<rect x="38" y="42" width="10" height="10" fill="#D9D9D9"/>
<rect x="52" y="42" width="10" height="10" fill="#D9D9D9"/>
<rect x="66" y="42" width="10" height="10" fill="#D9D9D9"/>
<rect x="24" y="56" width="10" height="10" fill="#D9D9D9"/>
<rect x="38" y="56" width="10" height="10" fill="#D9D9D9"/>
<rect x="52" y="56" width="10" height="10" fill="#D9D9D9"/>
<rect x="66" y="56" width="10" height="10" fill="#D9D9D9"/>
<rect x="24" y="70" width="10" height="10" fill="#D9D9D9"/>
<rect x="38" y="70" width="10" height="10" fill="#D9D9D9"/>
<rect x="52" y="70" width="10" height="10" fill="#D9D9D9"/>
<rect x="66" y="70" width="10" height="10" fill="#D9D9D9"/>
<path d="M4 26V8H19.8261V0H31.6957V8H67.3043V0H79.1739V8H95V26H4Z" fill="black" stroke="black"/>
<rect x="23" y="4" width="5" height="9" fill="#D9D9D9"/>
<rect x="71" y="4" width="5" height="9" fill="#D9D9D9"/>
</g>
<defs>
<clipPath id="clip0_2_5">
<rect width="100" height="100" fill="white"/>
</clipPath>
</defs>
</svg>
