<svg width="100" height="100" viewBox="0 0 100 100" fill="none" xmlns="http://www.w3.org/2000/svg">
<path d="M5 62.5L26 54.5H33L63.5 68L62.5 72H57L35 67L33 69L60 78L68 73L66.5 64.5L86 52.5L94.5 54.5L95.5 63.5L58.5 91.5H49L26 82.5H17L7.5 89H5V62.5Z" fill="black" stroke="black"/>
<path d="M37 8V39.5C40.6053 48.4479 44.1795 52.4827 54 57.5C59.0769 59.5309 61.9231 59.4336 67 57.5C75.7011 51.7136 79.3321 47.9591 81.5 39.5V8H77.5V23H73V8H69V17H65V8H61V15H57V8H53V17H49V8H45V23H41V8H37Z" fill="black" stroke="black"/>
<path d="M67.5 28V31H63V29L61.5 28H57.5L56 29.5V32.5L66 37V46H61.5V49.5H57.5V46H53V42H51V39H56V43H63V39L52.5 35V28L57.5 25V21H61.5V25L65.5 28H67.5Z" fill="#F5F5F5" stroke="black"/>
</svg>
